ply
format ascii 1.0
comment VCGLIB generated
element vertex 26
property float x
property float y
property float z
property float nx
property float ny
property float nz
property float texture_u
property float texture_v
element face 12
property list uchar int vertex_indices
end_header
18.6624 -10 -0.01 0 0 -1 1.000000 -1.000000
-18.6624 10 -0.01 0 0 -1 -1.000000 1.000000
18.6624 10 -0.01 0 0 -1 1.000000 1.000000
-18.6624 10 0.01 0 0 1 -1.000000 1.000000
18.66239 -10.00001 0.01 0 0 1 0.999999 -1.000001
18.6624 9.99999 0.01 0 0 1 1.000000 0.999999
18.6624 9.99999 0.01 1 0 0 1.000000 0.999999
18.6624 -10 -0.01 1 0 0 1.000000 -1.000000
18.6624 10 -0.01 1 0 0 1.000000 1.000000
18.66239 -10.00001 0.01 -4.449466e-07 -1 -2.384186e-10 0.999999 -1.000001
-18.6624 -10 -0.01 -4.449464e-07 -1 -2.384187e-10 -1.000000 -1.000000
18.6624 -10 -0.01 0 -1 -4.768372e-10 1.000000 -1.000000
-18.6624 -10 -0.01 -1 0 0 -1.000000 -1.000000
-18.6624 10 0.01 -1 0 0 -1.000000 1.000000
-18.6624 10 -0.01 -1 0 0 -1.000000 1.000000
18.6624 10 -0.01 4.727554e-07 1 2.533197e-10 1.000000 1.000000
-18.6624 10 0.01 4.727554e-07 1 2.533197e-10 -1.000000 1.000000
18.6624 9.99999 0.01 9.455111e-07 1 5.066394e-10 1.000000 0.999999
-18.6624 -10 -0.01 0 0 -1 -1.000000 -1.000000
-18.6624 -10 0.01 0 0 1 -1.000000 -1.000000
18.6624 9.99999 0.01 1 -2.71476e-07 2.714759e-10 1.000000 0.999999
18.66239 -10.00001 0.01 1 -2.71476e-07 2.714759e-10 0.999999 -1.000001
18.6624 -10 -0.01 1 -2.71476e-07 2.714759e-10 1.000000 -1.000000
-18.6624 -10 0.01 -8.898932e-07 -1 0 -1.000000 -1.000000
-18.6624 -10 0.01 -1 0 0 -1.000000 -1.000000
-18.6624 10 -0.01 0 1 0 -1.000000 1.000000
3 0 1 2 
3 3 4 5 
3 6 7 8 
3 9 10 11 
3 12 13 14 
3 15 16 17 
3 0 18 1 
3 3 19 4 
3 20 21 22 
3 9 23 10 
3 12 24 13 
3 15 25 16 
