ply
format ascii 1.0
comment VCGLIB generated
element vertex 26
property float x
property float y
property float z
property float nx
property float ny
property float nz
property float texture_u
property float texture_v
element face 12
property list uchar int vertex_indices
end_header
22.5 -2.8125 -0.75 0 0 -1 1.000000 -1.000000
-22.5 2.8125 -0.75 0 0 -1 -1.000000 1.000000
22.5 2.8125 -0.75 0 0 -1 1.000000 1.000000
-22.5 2.8125 0.75 0 0 1 -1.000000 1.000000
22.49998 -2.812502 0.75 0 0 1 0.999999 -1.000001
22.5 2.812498 0.75 0 0 1 1.000000 0.999999
22.5 2.812498 0.75 1 0 0 1.000000 0.999999
22.5 -2.8125 -0.75 1 0 0 1.000000 -1.000000
22.5 2.8125 -0.75 1 0 0 1.000000 1.000000
22.49998 -2.812502 0.75 -1.90735e-06 -1 -6.357828e-08 0.999999 -1.000001
-22.5 -2.8125 -0.75 -1.907349e-06 -1 -6.357832e-08 -1.000000 -1.000000
22.5 -2.8125 -0.75 0 -1 -1.271566e-07 1.000000 -1.000000
-22.5 -2.8125 -0.75 -1 0 0 -1.000000 -1.000000
-22.5 2.8125 0.75 -1 0 0 -1.000000 1.000000
-22.5 2.8125 -0.75 -1 0 0 -1.000000 1.000000
22.5 2.8125 -0.75 2.026558e-06 1 6.755192e-08 1.000000 1.000000
-22.5 2.8125 0.75 2.026558e-06 1 6.755192e-08 -1.000000 1.000000
22.5 2.812498 0.75 4.053116e-06 1 1.351039e-07 1.000000 0.999999
-22.5 -2.8125 -0.75 0 0 -1 -1.000000 -1.000000
-22.5 -2.8125 0.75 0 0 1 -1.000000 -1.000000
22.5 2.812498 0.75 1 -6.332995e-08 1.688798e-08 1.000000 0.999999
22.49998 -2.812502 0.75 1 -6.332995e-08 1.688798e-08 0.999999 -1.000001
22.5 -2.8125 -0.75 1 -6.332995e-08 1.688798e-08 1.000000 -1.000000
-22.5 -2.8125 0.75 -3.8147e-06 -1 0 -1.000000 -1.000000
-22.5 -2.8125 0.75 -1 0 0 -1.000000 -1.000000
-22.5 2.8125 -0.75 0 1 0 -1.000000 1.000000
3 0 1 2 
3 3 4 5 
3 6 7 8 
3 9 10 11 
3 12 13 14 
3 15 16 17 
3 0 18 1 
3 3 19 4 
3 20 21 22 
3 9 23 10 
3 12 24 13 
3 15 25 16 
